HIERARCHY
ROOT Hips
{
	OFFSET 0.000000 0.000000 0.000000
	CHANNELS 6 Xposition Yposition Zposition Zrotation Yrotation Xrotation 
	JOINT LeftUpLeg_virtual
	{
		OFFSET 0.000000 0.000000 0.000000
		CHANNELS 3 Zrotation Yrotation Xrotation
		JOINT LeftUpLeg
		{
			OFFSET 8.479694 -4.795517 -0.379053
			CHANNELS 3 Zrotation Yrotation Xrotation
			JOINT LeftLeg
			{
				OFFSET 0.485052 -32.551468 0.112863
				CHANNELS 3 Zrotation Yrotation Xrotation
				JOINT LeftFoot
				{
					OFFSET 0.438033 -32.635670 -3.012641
					CHANNELS 3 Zrotation Yrotation Xrotation
					JOINT LeftToeBase
					{
						OFFSET 0.970169 -13.225353 11.864223
						CHANNELS 3 Zrotation Yrotation Xrotation
						End Site
						{
							OFFSET 0.000000 0.000000 0.000000
						}
					}
				}
			}
		}
	}
	JOINT RightUpLeg_virtual
	{
		OFFSET 0.000000 0.000000 0.000000
		CHANNELS 3 Zrotation Yrotation Xrotation
		JOINT RightUpLeg
		{
			OFFSET -8.479694 -4.795517 -0.379053
			CHANNELS 3 Zrotation Yrotation Xrotation
			JOINT RightLeg
			{
				OFFSET -0.484100 -32.551483 0.112903
				CHANNELS 3 Zrotation Yrotation Xrotation
				JOINT RightFoot
				{
					OFFSET -0.438985 -32.635651 -3.012681
					CHANNELS 3 Zrotation Yrotation Xrotation
					JOINT RightToeBase
					{
						OFFSET -0.970169 -13.225354 11.864223
						CHANNELS 3 Zrotation Yrotation Xrotation
						End Site
						{
							OFFSET 0.000000 0.000000 0.000000
						}
					}
				}
			}
		}
	}
	JOINT Spine_virtual
	{
		OFFSET 0.000000 0.000000 0.000000
		CHANNELS 3 Zrotation Yrotation Xrotation
		JOINT Spine
		{
			OFFSET 0.000000 7.722015 1.166203
			CHANNELS 3 Zrotation Yrotation Xrotation
			JOINT Spine1
			{
				OFFSET 0.000000 12.024086 0.248766
				CHANNELS 3 Zrotation Yrotation Xrotation
				JOINT Spine2
				{
					OFFSET -0.000000 11.503036 -0.491240
					CHANNELS 3 Zrotation Yrotation Xrotation
					JOINT Neck_virtual
					{
						OFFSET 0.000000 0.000000 0.000000
						CHANNELS 3 Zrotation Yrotation Xrotation
						JOINT Neck
						{
							OFFSET 0.000000 18.430687 -3.123054
							CHANNELS 3 Zrotation Yrotation Xrotation
							JOINT Head
							{
								OFFSET -0.000000 9.051071 1.034021
								CHANNELS 3 Zrotation Yrotation Xrotation
								End Site
								{
									OFFSET 0.000000 0.000000 0.000000
								}
							}
						}
					}
					JOINT LeftShoulder_virtual
					{
						OFFSET 0.000000 0.000000 0.000000
						CHANNELS 3 Zrotation Yrotation Xrotation
						JOINT LeftShoulder
						{
							OFFSET 6.197824 13.665230 -4.064723
							CHANNELS 3 Zrotation Yrotation Xrotation
							JOINT LeftArm
							{
								OFFSET 7.778132 -0.187073 -1.709282
								CHANNELS 3 Zrotation Yrotation Xrotation
								JOINT LeftForeArm
								{
									OFFSET 21.954697 0.000000 -2.041093
									CHANNELS 3 Zrotation Yrotation Xrotation
									JOINT LeftHand
									{
										OFFSET 22.992908 0.000000 -0.870901
										CHANNELS 3 Zrotation Yrotation Xrotation
										End Site
										{
											OFFSET 0.000000 0.000000 0.000000
										}
									}
								}
							}
						}
					}
					JOINT RightShoulder_virtual
					{
						OFFSET 0.000000 0.000000 0.000000
						CHANNELS 3 Zrotation Yrotation Xrotation
						JOINT RightShoulder
						{
							OFFSET -6.197824 13.665230 -4.064723
							CHANNELS 3 Zrotation Yrotation Xrotation
							JOINT RightArm
							{
								OFFSET -7.778132 -0.187073 -1.709282
								CHANNELS 3 Zrotation Yrotation Xrotation
								JOINT RightForeArm
								{
									OFFSET -21.954697 0.000000 -2.041093
									CHANNELS 3 Zrotation Yrotation Xrotation
									JOINT RightHand
									{
										OFFSET -22.992908 0.000000 -0.870901
										CHANNELS 3 Zrotation Yrotation Xrotation
										End Site
										{
											OFFSET 0.000000 0.000000 0.000000
										}
									}
								}
							}
						}
					}
				}
			}
		}
	}
}
MOTION
Frames: 11
Frame Time: 0.033333
-11.095592 81.696152 21.576805 -179.873933 0.350241 179.977943 -3.450054 -1.644507 11.083334 -0.693325 3.491641 -24.025412 6.277890 4.520975 27.273960 -1.645458 -7.663112 -9.125925 0.000000 0.000000 0.000000 0.292315 -1.403381 10.852169 -6.784708 0.728282 -23.271862 -1.304251 6.395845 29.992344 9.549891 3.754274 -7.633441 0.000000 0.000000 0.000000 4.320023 0.982834 -0.367052 -5.645773 1.872633 1.503842 0.243463 -2.160856 4.203017 -0.029312 -0.037817 0.022146 -0.202956 -1.018094 5.164166 0.714697 -0.988236 -8.641436 0.000000 0.000000 0.000000 1.159695 -0.116378 2.394681 11.242589 4.216540 -4.123615 -15.010394 4.913362 -44.881989 0.904612 -30.856756 -4.979756 0.000000 0.000000 0.000000 -2.526642 0.998311 1.809758 3.782727 -13.391451 -2.552647 12.214605 -8.661490 -49.861313 0.981054 30.345725 -4.135058 0.000000 0.000000 0.000000 
-11.090299 81.701805 21.548002 -179.834646 0.178450 -179.924163 -3.462800 -1.423084 11.060340 -0.848062 3.905897 -24.058488 6.283835 4.851441 27.601855 -1.552277 -7.524572 -9.237246 0.000000 0.000000 0.000000 0.208315 -1.354395 10.951689 -6.905047 0.954929 -23.197406 -1.384145 6.634966 30.343399 9.430626 3.625601 -7.637035 0.000000 0.000000 0.000000 4.380420 0.970191 -0.391427 -5.620971 1.851129 1.463359 0.243163 -2.181075 4.184160 -0.057380 -0.057506 -0.005914 -0.182230 -0.960830 5.257048 0.725199 -1.002346 -8.618489 0.000000 0.000000 0.000000 1.157862 -0.183863 2.442799 11.159032 4.155251 -3.963155 -15.022912 4.898485 -44.877160 1.075088 -30.807360 -5.228092 0.000000 0.000000 0.000000 -2.509975 0.918003 1.841468 3.667243 -13.503033 -2.642285 12.411069 -8.743459 -49.909763 1.026817 30.392061 -4.138135 0.000000 0.000000 0.000000 
-11.089231 81.701279 21.519215 -179.868196 0.223486 -179.915024 -3.484679 -1.450977 11.089132 -0.855757 3.909368 -24.048611 6.267636 4.881531 27.583260 -1.529878 -7.514035 -9.228347 0.000000 0.000000 0.000000 0.189533 -1.337723 10.955331 -6.903703 0.917512 -23.206633 -1.389920 6.686373 30.363821 9.435583 3.629610 -7.608336 0.000000 0.000000 0.000000 4.327028 0.998480 -0.392006 -5.632204 1.863594 1.461610 0.252377 -2.142628 4.187897 -0.065073 -0.022316 0.019186 -0.183940 -0.925602 5.243307 0.726576 -0.941968 -8.587887 0.000000 0.000000 0.000000 1.170662 -0.231236 2.422114 11.151493 4.155587 -4.071059 -14.950611 4.902448 -44.839297 0.989632 -30.796251 -5.118187 0.000000 0.000000 0.000000 -2.542051 0.936923 1.806422 3.885585 -13.520034 -2.497115 12.272833 -8.711380 -49.908056 0.864330 30.367871 -4.298716 0.000000 0.000000 0.000000 
-11.091184 81.698578 21.494587 -179.836463 0.181519 -179.933069 -3.485494 -1.484319 11.097146 -0.831963 3.932472 -24.035262 6.286202 4.861017 27.618416 -1.527108 -7.531428 -9.258025 0.000000 0.000000 0.000000 0.201980 -1.359490 10.960997 -6.886221 0.904419 -23.195913 -1.373939 6.665662 30.396726 9.432559 3.636968 -7.588673 0.000000 0.000000 0.000000 4.343006 0.952502 -0.382606 -5.636610 1.801510 1.467854 0.247897 -2.191502 4.200147 -0.063277 -0.074747 0.037593 -0.176262 -0.972578 5.196166 0.733492 -0.959023 -8.588344 0.000000 0.000000 0.000000 1.159889 -0.130784 2.371048 11.089941 4.249957 -3.956220 -14.852895 4.833318 -44.775496 1.024582 -30.751223 -5.182041 0.000000 0.000000 0.000000 -2.514166 0.985481 1.828281 3.909030 -13.515187 -2.664314 12.335626 -8.605983 -50.039048 0.948940 30.327047 -4.181645 0.000000 0.000000 0.000000 
-11.092084 81.692467 21.476418 -179.866284 0.148479 -179.916349 -3.504551 -1.581385 11.091585 -0.821623 3.907681 -24.033744 6.272097 4.899321 27.649086 -1.495917 -7.516262 -9.288937 0.000000 0.000000 0.000000 0.180827 -1.378807 10.940540 -6.880435 0.860585 -23.204600 -1.374781 6.676292 30.456193 9.422056 3.644036 -7.613019 0.000000 0.000000 0.000000 4.292923 0.941841 -0.369703 -5.653691 1.796588 1.456392 0.275707 -2.163451 4.191315 -0.008005 -0.048408 0.008317 -0.221862 -0.977268 5.259180 0.776223 -0.943036 -8.554449 0.000000 0.000000 0.000000 1.107443 -0.161068 2.440589 11.107524 4.272392 -4.021724 -14.814235 4.861239 -44.842941 0.956581 -30.692247 -5.146460 0.000000 0.000000 0.000000 -2.579937 0.978158 1.830219 4.023155 -13.530925 -2.678213 12.481797 -8.634027 -50.110045 0.915474 30.364067 -4.275003 0.000000 0.000000 0.000000 
-11.092420 81.691780 21.466002 -179.857527 0.017691 -179.900503 -3.524809 -1.837068 11.081447 -0.800342 3.950832 -24.041115 6.280966 4.912381 27.691633 -1.463234 -7.515525 -9.334166 0.000000 0.000000 0.000000 0.179153 -1.449284 10.923192 -6.869465 0.815801 -23.196998 -1.366354 6.609759 30.497290 9.396092 3.645689 -7.646907 0.000000 0.000000 0.000000 4.275618 0.883703 -0.364311 -5.656134 1.748883 1.419279 0.267349 -2.187511 4.168196 -0.016573 -0.065843 -0.001573 -0.207420 -0.962356 5.235164 0.792831 -0.940509 -8.601406 0.000000 0.000000 0.000000 1.138352 -0.216048 2.381168 11.065681 4.230171 -4.005284 -14.802932 5.037382 -44.740423 0.890551 -30.704781 -5.103338 0.000000 0.000000 0.000000 -2.567010 0.959818 1.824640 4.154618 -13.504466 -2.604878 12.472156 -8.633290 -50.151388 0.808766 30.352032 -4.388912 0.000000 0.000000 0.000000 
-11.092254 81.692101 21.455082 -179.875668 0.219914 -179.911909 -3.545338 -1.658362 11.093174 -0.796762 3.940807 -24.032618 6.280127 4.948587 27.696139 -1.439418 -7.491850 -9.321721 0.000000 0.000000 0.000000 0.167599 -1.432213 10.877747 -6.883272 0.839495 -23.211840 -1.340434 6.710488 30.492386 9.440121 3.717403 -7.549873 0.000000 0.000000 0.000000 4.269905 0.943766 -0.330855 -5.653984 1.796323 1.418958 0.236980 -2.124394 4.192476 -0.067765 -0.053802 0.007319 -0.158411 -0.908381 5.166744 0.813009 -0.895761 -8.627941 0.000000 0.000000 0.000000 1.183500 -0.192399 2.385274 11.030286 4.255507 -3.988978 -14.747941 5.034687 -44.637219 0.810053 -30.737853 -5.047129 0.000000 0.000000 0.000000 -2.526703 0.989309 1.753584 4.246690 -13.505883 -2.682607 12.515764 -8.729822 -50.111216 0.853376 30.389165 -4.282941 0.000000 0.000000 0.000000 
-11.095536 81.693474 21.444717 -179.894055 0.035166 -179.897566 -3.588705 -2.024017 11.104476 -0.777692 3.920761 -24.049878 6.295281 4.950544 27.720454 -1.387763 -7.445061 -9.341587 0.000000 0.000000 0.000000 0.141085 -1.568331 10.886632 -6.878206 0.747418 -23.196898 -1.322699 6.594484 30.507399 9.429874 3.744349 -7.608090 0.000000 0.000000 0.000000 4.241597 0.808025 -0.269976 -5.653517 1.740130 1.367121 0.247522 -2.139343 4.166015 -0.042337 -0.070968 0.052216 -0.187455 -0.913186 5.168253 0.849373 -0.893060 -8.604618 0.000000 0.000000 0.000000 1.161115 -0.166085 2.413825 10.966986 4.147215 -3.892024 -14.704156 5.130164 -44.591044 0.859040 -30.804454 -5.101206 0.000000 0.000000 0.000000 -2.536329 0.950737 1.764472 4.382703 -13.501357 -2.713093 12.559722 -8.730846 -50.126557 0.828885 30.385299 -4.298037 0.000000 0.000000 0.000000 
-11.101159 81.694031 21.436977 -179.861858 0.259626 -179.902005 -3.591141 -1.897202 11.134824 -0.776744 3.901971 -24.051430 6.284506 5.008765 27.743018 -1.335183 -7.390728 -9.355590 0.000000 0.000000 0.000000 0.138001 -1.549717 10.860086 -6.890910 0.810360 -23.228027 -1.321160 6.687647 30.483274 9.465003 3.800122 -7.524986 0.000000 0.000000 0.000000 4.242245 0.829826 -0.229821 -5.631554 1.702004 1.332081 0.242898 -2.119228 4.214655 -0.039068 -0.057809 -0.054773 -0.191889 -0.892416 5.216029 0.863491 -0.884658 -8.580722 0.000000 0.000000 0.000000 1.167671 -0.127387 2.432884 10.924137 4.286192 -3.859586 -14.709191 5.224496 -44.440216 0.843968 -30.879183 -5.085502 0.000000 0.000000 0.000000 -2.530719 1.011983 1.892623 4.470374 -13.370392 -2.703609 12.559958 -8.809885 -50.376805 0.858631 30.357104 -4.270439 0.000000 0.000000 0.000000 
-11.113688 81.690132 21.432941 -179.870764 0.363832 -179.911431 -3.596824 -1.812467 11.148445 -0.757156 3.785415 -24.064708 6.269280 5.028601 27.748506 -1.268721 -7.313430 -9.354535 0.000000 0.000000 0.000000 0.123548 -1.547340 10.861809 -6.891139 0.816080 -23.232491 -1.316360 6.675342 30.496689 9.489386 3.853518 -7.539722 0.000000 0.000000 0.000000 4.186640 0.856291 -0.159975 -5.620304 1.714842 1.283373 0.282117 -2.064604 4.156975 0.010767 -0.011564 0.029818 -0.229833 -0.964441 5.157952 0.933189 -0.875827 -8.562568 0.000000 0.000000 0.000000 1.081644 -0.109445 2.480335 10.890300 4.251705 -3.925898 -14.685521 5.225335 -44.355016 0.840472 -30.911896 -5.011552 0.000000 0.000000 0.000000 -2.596728 0.987752 1.806290 4.538190 -13.324091 -2.705348 12.603488 -9.040333 -50.349822 0.853110 30.289929 -4.284485 0.000000 0.000000 0.000000 
-11.125894 81.683311 21.426853 -179.895066 0.240638 -179.884384 -3.646786 -1.992894 11.150482 -0.756721 3.755119 -24.093521 6.288603 5.020418 27.764709 -1.243344 -7.308845 -9.374055 0.000000 0.000000 0.000000 0.080813 -1.615204 10.872699 -6.887464 0.720983 -23.216619 -1.316003 6.606330 30.435538 9.505113 3.888186 -7.562333 0.000000 0.000000 0.000000 4.152619 0.830500 -0.047486 -5.594329 1.667641 1.119423 0.243452 -2.073804 4.171075 -0.059204 -0.058945 0.018115 -0.174624 -0.831131 5.208983 0.952193 -0.865771 -8.477767 0.000000 0.000000 0.000000 1.162420 -0.072327 2.540706 10.852557 4.201576 -3.799187 -14.795318 5.325472 -44.330632 0.888093 -30.909659 -5.032500 0.000000 0.000000 0.000000 -2.526140 1.049842 1.815854 4.637116 -13.188508 -2.634478 12.601547 -9.367353 -50.399884 0.828438 30.133873 -4.273470 0.000000 0.000000 0.000000 
